<svg width="20" height="20" viewBox="0 0 20 20" fill="none" xmlns="http://www.w3.org/2000/svg">
<g id="pepicons-pencil:persons">
<g id="Group">
<path id="Vector" fill-rule="evenodd" clip-rule="evenodd" d="M3.36 9.97698C2.7581 10.8803 2.43695 11.9415 2.437 13.027V14C2.437 14.1326 2.38432 14.2598 2.29055 14.3535C2.19678 14.4473 2.0696 14.5 1.937 14.5C1.80439 14.5 1.67721 14.4473 1.58344 14.3535C1.48967 14.2598 1.437 14.1326 1.437 14V13.028C1.4373 11.7444 1.81762 10.4897 2.53 9.42198L2.638 9.25998C2.67444 9.20535 2.72128 9.15843 2.77586 9.1219C2.83043 9.08538 2.89166 9.05996 2.95606 9.0471C3.02046 9.03424 3.08676 9.03419 3.15118 9.04695C3.21559 9.05971 3.27687 9.08504 3.3315 9.12148C3.38613 9.15792 3.43304 9.20476 3.46957 9.25934C3.50609 9.31391 3.53151 9.37515 3.54437 9.43954C3.55724 9.50394 3.55729 9.57024 3.54452 9.63466C3.53176 9.69907 3.50644 9.76035 3.47 9.81498L3.36 9.97698Z" fill="black"/>
<path id="Vector_2" fill-rule="evenodd" clip-rule="evenodd" d="M6.17999 8.36499C5.08999 8.36499 4.07299 8.90899 3.46899 9.81499L2.63699 9.26099C3.02589 8.678 3.5526 8.19995 4.17045 7.86922C4.7883 7.5385 5.4782 7.3653 6.17899 7.36499H6.39899C6.5316 7.36499 6.65878 7.41767 6.75255 7.51144C6.84631 7.60521 6.89899 7.73238 6.89899 7.86499C6.89899 7.9976 6.84631 8.12478 6.75255 8.21854C6.65878 8.31231 6.5316 8.36499 6.39899 8.36499H6.17999ZM9.25799 9.96499C9.72799 10.671 9.97899 11.499 9.97899 12.347H10.979C10.9786 11.3021 10.6693 10.2806 10.09 9.41099L9.98999 9.26099C9.95457 9.20425 9.90811 9.15519 9.85338 9.11672C9.79866 9.07825 9.73676 9.05116 9.67138 9.03704C9.60599 9.02293 9.53843 9.02208 9.47271 9.03454C9.40698 9.04701 9.34443 9.07253 9.28875 9.10961C9.23307 9.14668 9.18539 9.19455 9.14855 9.25039C9.1117 9.30622 9.08643 9.36888 9.07424 9.43466C9.06205 9.50043 9.06318 9.56798 9.07757 9.63331C9.09195 9.69864 9.1193 9.76042 9.15799 9.81499L9.25799 9.96499Z" fill="black"/>
<path id="Vector_3" fill-rule="evenodd" clip-rule="evenodd" d="M6.448 8.36499C7.537 8.36499 8.554 8.90899 9.158 9.81499L9.99 9.26099C9.6011 8.678 9.07439 8.19995 8.45654 7.86922C7.83869 7.5385 7.14879 7.3653 6.448 7.36499H6.228C6.16234 7.36499 6.09732 7.37792 6.03665 7.40305C5.97599 7.42818 5.92087 7.46501 5.87444 7.51144C5.82801 7.55787 5.79118 7.61299 5.76606 7.67365C5.74093 7.73431 5.728 7.79933 5.728 7.86499C5.728 7.93065 5.74093 7.99567 5.76606 8.05633C5.79118 8.117 5.82801 8.17211 5.87444 8.21854C5.92087 8.26497 5.97599 8.3018 6.03665 8.32693C6.09732 8.35206 6.16234 8.36499 6.228 8.36499H6.448Z" fill="black"/>
<path id="Vector_4" fill-rule="evenodd" clip-rule="evenodd" d="M6.25 7.25C6.54547 7.25 6.83806 7.1918 7.11104 7.07873C7.38402 6.96566 7.63206 6.79992 7.84099 6.59099C8.04992 6.38206 8.21566 6.13402 8.32873 5.86104C8.4418 5.58806 8.5 5.29547 8.5 5C8.5 4.70453 8.4418 4.41194 8.32873 4.13896C8.21566 3.86598 8.04992 3.61794 7.84099 3.40901C7.63206 3.20008 7.38402 3.03434 7.11104 2.92127C6.83806 2.8082 6.54547 2.75 6.25 2.75C5.65326 2.75 5.08097 2.98705 4.65901 3.40901C4.23705 3.83097 4 4.40326 4 5C4 5.59674 4.23705 6.16903 4.65901 6.59099C5.08097 7.01295 5.65326 7.25 6.25 7.25ZM6.25 8.25C7.11195 8.25 7.9386 7.90759 8.5481 7.2981C9.15759 6.6886 9.5 5.86195 9.5 5C9.5 4.13805 9.15759 3.3114 8.5481 2.7019C7.9386 2.09241 7.11195 1.75 6.25 1.75C5.38805 1.75 4.5614 2.09241 3.9519 2.7019C3.34241 3.3114 3 4.13805 3 5C3 5.86195 3.34241 6.6886 3.9519 7.2981C4.5614 7.90759 5.38805 8.25 6.25 8.25ZM10.509 13.186C9.90656 14.0895 9.58505 15.1511 9.585 16.237V17.271C9.585 17.4036 9.53232 17.5308 9.43855 17.6246C9.34479 17.7183 9.21761 17.771 9.085 17.771C8.95239 17.771 8.82521 17.7183 8.73145 17.6246C8.63768 17.5308 8.585 17.4036 8.585 17.271V16.237C8.58491 14.954 8.96452 13.6997 9.676 12.632L9.809 12.432C9.88273 12.3217 9.99727 12.2451 10.1274 12.2193C10.2576 12.1934 10.3927 12.2203 10.503 12.294C10.6133 12.3677 10.6899 12.4823 10.7157 12.6124C10.7416 12.7426 10.7147 12.8777 10.641 12.988L10.509 13.186Z" fill="black"/>
<path id="Vector_5" fill-rule="evenodd" clip-rule="evenodd" d="M13.42 11.5C12.8699 11.4999 12.3283 11.6357 11.8433 11.8953C11.3584 12.1549 10.945 12.5302 10.64 12.988L9.80899 12.433C10.2053 11.8385 10.7422 11.3509 11.3721 11.0137C12.002 10.6765 12.7055 10.5001 13.42 10.5H13.644C13.7766 10.5 13.9038 10.5527 13.9975 10.6464C14.0913 10.7402 14.144 10.8674 14.144 11C14.144 11.1326 14.0913 11.2598 13.9975 11.3536C13.9038 11.4473 13.7766 11.5 13.644 11.5H13.42ZM16.607 13.186C17.2094 14.0895 17.5309 15.1511 17.531 16.237V17.271C17.531 17.4036 17.5837 17.5308 17.6774 17.6246C17.7712 17.7183 17.8984 17.771 18.031 17.771C18.1636 17.771 18.2908 17.7183 18.3845 17.6246C18.4783 17.5308 18.531 17.4036 18.531 17.271V16.237C18.5308 14.9539 18.1508 13.6995 17.439 12.632L17.306 12.432C17.2323 12.3217 17.1177 12.2451 16.9876 12.2193C16.8574 12.1934 16.7223 12.2203 16.612 12.294C16.5017 12.3677 16.4251 12.4823 16.3993 12.6124C16.3734 12.7426 16.4003 12.8777 16.474 12.988L16.607 13.186Z" fill="black"/>
<path id="Vector_6" fill-rule="evenodd" clip-rule="evenodd" d="M13.695 11.5C14.2451 11.4999 14.7867 11.6357 15.2716 11.8953C15.7566 12.1549 16.17 12.5302 16.475 12.988L17.307 12.433C16.9106 11.8383 16.3735 11.3507 15.7434 11.0135C15.1133 10.6763 14.4097 10.4999 13.695 10.5H13.47C13.3374 10.5 13.2102 10.5527 13.1164 10.6464C13.0227 10.7402 12.97 10.8674 12.97 11C12.97 11.1326 13.0227 11.2598 13.1164 11.3536C13.2102 11.4473 13.3374 11.5 13.47 11.5H13.695Z" fill="black"/>
<path id="Vector_7" fill-rule="evenodd" clip-rule="evenodd" d="M13.5 10.5C13.7955 10.5 14.0881 10.4418 14.361 10.3287C14.634 10.2157 14.8821 10.0499 15.091 9.84099C15.2999 9.63206 15.4657 9.38402 15.5787 9.11104C15.6918 8.83806 15.75 8.54547 15.75 8.25C15.75 7.95453 15.6918 7.66194 15.5787 7.38896C15.4657 7.11598 15.2999 6.86794 15.091 6.65901C14.8821 6.45008 14.634 6.28434 14.361 6.17127C14.0881 6.0582 13.7955 6 13.5 6C12.9033 6 12.331 6.23705 11.909 6.65901C11.4871 7.08097 11.25 7.65326 11.25 8.25C11.25 8.84674 11.4871 9.41903 11.909 9.84099C12.331 10.2629 12.9033 10.5 13.5 10.5ZM13.5 11.5C14.362 11.5 15.1886 11.1576 15.7981 10.5481C16.4076 9.9386 16.75 9.11195 16.75 8.25C16.75 7.38805 16.4076 6.5614 15.7981 5.9519C15.1886 5.34241 14.362 5 13.5 5C12.638 5 11.8114 5.34241 11.2019 5.9519C10.5924 6.5614 10.25 7.38805 10.25 8.25C10.25 9.11195 10.5924 9.9386 11.2019 10.5481C11.8114 11.1576 12.638 11.5 13.5 11.5Z" fill="black"/>
</g>
</g>
</svg>
