<svg width="35" height="35" viewBox="0 0 35 35" fill="none" xmlns="http://www.w3.org/2000/svg">
<g id="bx:user-check">
<path id="Vector" d="M29.2442 12.2442L23.1667 18.3217L21.325 16.4942L19.3275 18.5058L23.1525 22.3308L31.2558 14.2558L29.2442 12.2442ZM6.16668 11.8333C6.14923 12.5823 6.28388 13.3269 6.56248 14.0223C6.84108 14.7177 7.25784 15.3494 7.78756 15.8791C8.31727 16.4088 8.94893 16.8256 9.64433 17.1042C10.3397 17.3828 11.0844 17.5174 11.8333 17.5C12.5823 17.5174 13.327 17.3828 14.0224 17.1042C14.7178 16.8256 15.3494 16.4088 15.8791 15.8791C16.4088 15.3494 16.8256 14.7177 17.1042 14.0223C17.3828 13.3269 17.5175 12.5823 17.5 11.8333C17.5175 11.0844 17.3828 10.3397 17.1042 9.64432C16.8256 8.94892 16.4088 8.31727 15.8791 7.78755C15.3494 7.25783 14.7178 6.84107 14.0224 6.56247C13.327 6.28387 12.5823 6.14922 11.8333 6.16667C11.0844 6.14922 10.3397 6.28387 9.64433 6.56247C8.94893 6.84107 8.31727 7.25783 7.78756 7.78755C7.25784 8.31727 6.84108 8.94892 6.56248 9.64432C6.28388 10.3397 6.14923 11.0844 6.16668 11.8333ZM14.6667 11.8333C14.6849 12.2102 14.6241 12.5868 14.4881 12.9388C14.3522 13.2908 14.1441 13.6105 13.8773 13.8773C13.6105 14.1441 13.2908 14.3522 12.9388 14.4881C12.5868 14.6241 12.2102 14.6849 11.8333 14.6667C11.4564 14.6849 11.0799 14.6241 10.7279 14.4881C10.3759 14.3522 10.0562 14.1441 9.78937 13.8773C9.52255 13.6105 9.31449 13.2908 9.17855 12.9388C9.0426 12.5868 8.98179 12.2102 9.00001 11.8333C8.98179 11.4564 9.0426 11.0799 9.17855 10.7279C9.31449 10.3759 9.52255 10.0562 9.78937 9.78936C10.0562 9.52254 10.3759 9.31448 10.7279 9.17854C11.0799 9.04259 11.4564 8.98178 11.8333 9C12.2102 8.98178 12.5868 9.04259 12.9388 9.17854C13.2908 9.31448 13.6105 9.52254 13.8773 9.78936C14.1441 10.0562 14.3522 10.3759 14.4881 10.7279C14.6241 11.0799 14.6849 11.4564 14.6667 11.8333ZM6.16668 26C6.16668 24.8728 6.61444 23.7918 7.41147 22.9948C8.2085 22.1978 9.28951 21.75 10.4167 21.75H13.25C14.3772 21.75 15.4582 22.1978 16.2552 22.9948C17.0522 23.7918 17.5 24.8728 17.5 26V27.4167H20.3333V26C20.3333 25.0698 20.1501 24.1487 19.7942 23.2893C19.4382 22.4299 18.9164 21.6491 18.2587 20.9913C17.6009 20.3336 16.8201 19.8118 15.9607 19.4559C15.1013 19.0999 14.1802 18.9167 13.25 18.9167H10.4167C8.53806 18.9167 6.73639 19.6629 5.408 20.9913C4.07962 22.3197 3.33334 24.1214 3.33334 26V27.4167H6.16668V26Z" fill="black"/>
</g>
</svg>
