<svg width="30" height="29" viewBox="0 0 30 29" fill="none" xmlns="http://www.w3.org/2000/svg">
<g id="bx:user-check">
<path id="Vector" d="M25.0171 10.0171L19.8333 15.2008L18.2625 13.6421L16.5587 15.3579L19.8212 18.6204L26.7329 11.7329L25.0171 10.0171ZM5.33332 9.66667C5.31844 10.3055 5.43329 10.9406 5.67092 11.5338C5.90855 12.1269 6.26402 12.6657 6.71584 13.1175C7.16766 13.5693 7.70643 13.9248 8.29956 14.1624C8.89269 14.4 9.52787 14.5149 10.1667 14.5C10.8054 14.5149 11.4406 14.4 12.0338 14.1624C12.6269 13.9248 13.1657 13.5693 13.6175 13.1175C14.0693 12.6657 14.4248 12.1269 14.6624 11.5338C14.9 10.9406 15.0149 10.3055 15 9.66667C15.0149 9.02787 14.9 8.3927 14.6624 7.79957C14.4248 7.20643 14.0693 6.66767 13.6175 6.21585C13.1657 5.76403 12.6269 5.40856 12.0338 5.17093C11.4406 4.9333 10.8054 4.81845 10.1667 4.83333C9.52787 4.81845 8.89269 4.9333 8.29956 5.17093C7.70643 5.40856 7.16766 5.76403 6.71584 6.21585C6.26402 6.66767 5.90855 7.20643 5.67092 7.79957C5.43329 8.3927 5.31844 9.02787 5.33332 9.66667ZM12.5833 9.66667C12.5989 9.98814 12.547 10.3093 12.431 10.6096C12.3151 10.9098 12.1376 11.1825 11.91 11.4101C11.6825 11.6376 11.4098 11.8151 11.1095 11.9311C10.8093 12.047 10.4881 12.0989 10.1667 12.0833C9.84518 12.0989 9.52401 12.047 9.22377 11.9311C8.92352 11.8151 8.65086 11.6376 8.42327 11.4101C8.19569 11.1825 8.01822 10.9098 7.90227 10.6096C7.78632 10.3093 7.73445 9.98814 7.74999 9.66667C7.73445 9.34519 7.78632 9.02401 7.90227 8.72377C8.01822 8.42353 8.19569 8.15086 8.42327 7.92328C8.65086 7.6957 8.92352 7.51823 9.22377 7.40228C9.52401 7.28633 9.84518 7.23446 10.1667 7.25C10.4881 7.23446 10.8093 7.28633 11.1095 7.40228C11.4098 7.51823 11.6825 7.6957 11.91 7.92328C12.1376 8.15086 12.3151 8.42353 12.431 8.72377C12.547 9.02401 12.5989 9.34519 12.5833 9.66667ZM5.33332 21.75C5.33332 20.7886 5.71524 19.8666 6.39506 19.1867C7.07488 18.5069 7.99691 18.125 8.95832 18.125H11.375C12.3364 18.125 13.2584 18.5069 13.9383 19.1867C14.6181 19.8666 15 20.7886 15 21.75V22.9583H17.4167V21.75C17.4167 20.9566 17.2604 20.171 16.9568 19.438C16.6531 18.7049 16.2081 18.0389 15.6471 17.4779C15.0861 16.9169 14.42 16.4718 13.687 16.1682C12.954 15.8646 12.1684 15.7083 11.375 15.7083H8.95832C7.35597 15.7083 5.81925 16.3449 4.68622 17.4779C3.55319 18.6109 2.91666 20.1476 2.91666 21.75V22.9583H5.33332V21.75Z" fill="black"/>
</g>
</svg>
