<svg width="19" height="20" viewBox="0 0 19 20" fill="none" xmlns="http://www.w3.org/2000/svg">
<g id="game-icons:plants-and-animals">
<path id="Vector" d="M9.09191 1.31202C2.89472 1.33992 -2.15275 9.14403 4.24579 15.457C4.54397 16.3999 5.83348 16.9957 7.76785 17.6042C9.17177 18.0493 9.65237 17.42 9.33022 16.5903C7.93944 13.0083 4.78002 13.1304 4.55822 12.8026C0.729088 7.1442 6.87896 1.76616 11.9336 4.19827C17.6825 6.96329 15.3906 12.3025 12.1228 14.5614C10.8618 15.4295 10.0894 16.5617 10.5043 17.6834C10.7265 18.2837 11.8015 18.7617 12.2086 18.6786C12.5299 18.6132 10.8618 17.7027 11.9005 16.6025C12.7257 15.7244 15.2256 15.2122 16.5438 12.7613C19.0469 8.11695 17.6088 3.91439 11.6937 1.76724C11.2426 1.60492 10.7936 1.48821 10.3436 1.41284C9.93001 1.3439 9.51128 1.31018 9.09194 1.31206L9.09191 1.31202ZM9.51622 4.28819C9.51622 4.28819 8.46324 5.42856 8.48194 6.59435C8.48305 6.83311 8.53033 7.07518 8.60184 7.30459C8.98036 7.75027 9.28733 8.26683 9.55362 8.82741C9.81658 8.14085 10.1522 7.55218 10.5692 7.07251C10.5956 6.92778 10.6099 6.78528 10.6099 6.64111C10.5945 5.47595 9.51622 4.28819 9.51622 4.28819ZM13.7711 6.28991C11.7872 6.4071 10.5043 8.19343 9.73961 9.74976C9.70659 9.82072 9.46319 9.84016 9.42047 9.76683C8.85604 8.74521 8.50172 7.97772 7.80418 7.399C7.144 6.84996 6.31104 6.52318 5.18982 6.51713C5.23825 6.96218 5.44959 8.18185 6.33309 8.85799C6.6346 9.08955 7.07245 9.20956 7.51702 9.31239C7.95937 9.41199 8.4137 9.49063 8.7603 9.6964C9.03977 9.86254 9.21801 10.1222 9.30276 10.4243C9.38748 10.7251 9.38529 11.0668 9.32039 11.4288C9.2114 12.0576 8.91545 12.7492 8.52042 13.3862C8.52042 13.3862 9.68892 13.8731 9.89692 15.7106C10.2842 14.7698 11.0995 14.2318 11.0995 14.2318C10.6704 13.6217 10.0608 12.0428 9.91562 11.4222C9.83528 11.0652 9.80997 10.7257 9.87599 10.4204C9.94093 10.1156 10.1016 9.84499 10.3711 9.66397C10.7056 9.44001 11.1513 9.33659 11.5903 9.21123C12.0304 9.08517 12.4584 8.93774 12.7533 8.68799C13.2748 8.24238 13.5344 7.60254 13.661 7.06564C13.7226 6.7966 13.7545 6.55669 13.7666 6.38617C13.7711 6.34435 13.77 6.32234 13.7711 6.28991ZM5.86228 14.8615C6.22298 14.8714 7.18137 15.6199 6.91066 15.6756C5.7318 15.9181 5.57516 15.1701 5.74961 14.9067C5.77143 14.8737 5.81073 14.8601 5.86228 14.8615Z" fill="black"/>
</g>
</svg>
