<svg width="18" height="22" viewBox="0 0 18 22" fill="none" xmlns="http://www.w3.org/2000/svg">
<g id="Group">
<path id="Vector" d="M13 0.592987C13.2652 0.592987 13.5196 0.698344 13.7071 0.88588C13.8946 1.07342 14 1.32777 14 1.59299V2.59299H16C16.5304 2.59299 17.0391 2.8037 17.4142 3.17877C17.7893 3.55385 18 4.06255 18 4.59299V16.593C18 17.1234 17.7893 17.6321 17.4142 18.0072C17.0391 18.3823 16.5304 18.593 16 18.593H2C1.46957 18.593 0.960859 18.3823 0.585786 18.0072C0.210714 17.6321 0 17.1234 0 16.593V4.59299C0 4.06255 0.210714 3.55385 0.585786 3.17877C0.960859 2.8037 1.46957 2.59299 2 2.59299H4V1.59299C4 1.32777 4.10536 1.07342 4.29289 0.88588C4.48043 0.698344 4.73478 0.592987 5 0.592987C5.26522 0.592987 5.51957 0.698344 5.70711 0.88588C5.89464 1.07342 6 1.32777 6 1.59299V2.59299H12V1.59299C12 1.32777 12.1054 1.07342 12.2929 0.88588C12.4804 0.698344 12.7348 0.592987 13 0.592987ZM16 4.59299H2V16.593H16V4.59299ZM11.824 6.97199C12.0126 6.78983 12.2652 6.68903 12.5274 6.69131C12.7896 6.69359 13.0404 6.79876 13.2258 6.98417C13.4112 7.16958 13.5164 7.42039 13.5187 7.68259C13.521 7.94478 13.4202 8.19739 13.238 8.38599L8.296 13.329C8.2022 13.4229 8.09082 13.4973 7.96822 13.5482C7.84562 13.599 7.71421 13.6251 7.5815 13.6251C7.44879 13.6251 7.31738 13.599 7.19478 13.5482C7.07218 13.4973 6.9608 13.4229 6.867 13.329L4.753 11.213C4.57084 11.0244 4.47005 10.7718 4.47233 10.5096C4.4746 10.2474 4.57977 9.99658 4.76518 9.81117C4.95059 9.62576 5.2014 9.52059 5.4636 9.51831C5.7258 9.51603 5.9784 9.61683 6.167 9.79899L7.582 11.213L11.824 6.97199Z" fill="black"/>
</g>
</svg>
