<svg width="19" height="18" viewBox="0 0 19 18" fill="none" xmlns="http://www.w3.org/2000/svg">
<g id="Group 13">
<path id="Vector" d="M3.35294 0.617661C3.35294 0.469452 3.41182 0.327313 3.51662 0.222514C3.62142 0.117714 3.76356 0.0588379 3.91176 0.0588379H7.26471C7.41292 0.0588379 7.55505 0.117714 7.65985 0.222514C7.76465 0.327313 7.82353 0.469452 7.82353 0.617661V3.9706C7.82353 4.11881 7.76465 4.26095 7.65985 4.36575C7.55505 4.47055 7.41292 4.52943 7.26471 4.52943H3.91176C3.76356 4.52943 3.62142 4.47055 3.51662 4.36575C3.41182 4.26095 3.35294 4.11881 3.35294 3.9706V0.617661ZM10.6176 0.0588379C10.4694 0.0588379 10.3273 0.117714 10.2225 0.222514C10.1177 0.327313 10.0588 0.469452 10.0588 0.617661V3.9706C10.0588 4.11881 10.1177 4.26095 10.2225 4.36575C10.3273 4.47055 10.4694 4.52943 10.6176 4.52943H13.9706C14.1188 4.52943 14.2609 4.47055 14.3657 4.36575C14.4705 4.26095 14.5294 4.11881 14.5294 3.9706V0.617661C14.5294 0.469452 14.4705 0.327313 14.3657 0.222514C14.2609 0.117714 14.1188 0.0588379 13.9706 0.0588379H10.6176ZM11.1765 3.41178V1.17648H13.4118V3.41178H11.1765ZM0 10.1177C0 8.93199 0.471007 7.79488 1.30941 6.95648C2.1478 6.11808 3.28491 5.64707 4.47059 5.64707H13.4118C14.9653 5.64707 16.3322 6.43837 17.1335 7.63984C16.0849 7.0084 14.8709 6.70626 13.6487 6.77254C13.5698 6.76714 13.4908 6.76453 13.4118 6.76472H4.47059C3.58133 6.76472 2.7285 7.11798 2.0997 7.74677C1.4709 8.37557 1.11765 9.22841 1.11765 10.1177C1.11765 11.0069 1.4709 11.8598 2.0997 12.4885C2.7285 13.1173 3.58133 13.4706 4.47059 13.4706H7.84812C7.88314 13.8551 7.95206 14.2276 8.05488 14.5882H4.47059C3.28491 14.5882 2.1478 14.1172 1.30941 13.2788C0.471007 12.4404 0 11.3033 0 10.1177ZM8.94118 9.00001C9.03133 9.00001 9.11888 9.01045 9.20382 9.03131C8.74641 9.59174 8.39152 10.2285 8.15547 10.9123C7.99794 10.7565 7.89028 10.5574 7.84614 10.3403C7.80201 10.1232 7.8234 9.89784 7.9076 9.69291C7.9918 9.48797 8.13501 9.31269 8.31904 9.18932C8.50307 9.06595 8.71962 9.00006 8.94118 9.00001ZM4.47059 11.2353C4.76701 11.2353 5.05128 11.1176 5.26088 10.908C5.47048 10.6984 5.58824 10.4141 5.58824 10.1177C5.58824 9.82124 5.47048 9.53697 5.26088 9.32737C5.05128 9.11777 4.76701 9.00001 4.47059 9.00001C4.17417 9.00001 3.88989 9.11777 3.68029 9.32737C3.47069 9.53697 3.35294 9.82124 3.35294 10.1177C3.35294 10.4141 3.47069 10.6984 3.68029 10.908C3.88989 11.1176 4.17417 11.2353 4.47059 11.2353ZM19 12.9118C19 14.2457 18.4701 15.5249 17.5269 16.4681C16.5837 17.4113 15.3045 17.9412 13.9706 17.9412C12.6367 17.9412 11.3575 17.4113 10.4143 16.4681C9.47106 15.5249 8.94118 14.2457 8.94118 12.9118C8.94118 11.5779 9.47106 10.2986 10.4143 9.35545C11.3575 8.41225 12.6367 7.88237 13.9706 7.88237C15.3045 7.88237 16.5837 8.41225 17.5269 9.35545C18.4701 10.2986 19 11.5779 19 12.9118ZM15.8102 10.8397L12.8529 13.7981L12.1309 13.075C12.026 12.97 11.8837 12.9111 11.7353 12.9111C11.5869 12.9111 11.4446 12.97 11.3396 13.075C11.2347 13.1799 11.1758 13.3222 11.1758 13.4706C11.1758 13.619 11.2347 13.7613 11.3396 13.8662L12.4573 14.9839C12.5092 15.0359 12.5709 15.0772 12.6388 15.1054C12.7067 15.1336 12.7794 15.1481 12.8529 15.1481C12.9264 15.1481 12.9992 15.1336 13.0671 15.1054C13.135 15.0772 13.1967 15.0359 13.2486 14.9839L16.6015 11.631C16.7065 11.526 16.7654 11.3837 16.7654 11.2353C16.7654 11.0869 16.7065 10.9446 16.6015 10.8397C16.4966 10.7347 16.3543 10.6758 16.2059 10.6758C16.0575 10.6758 15.9152 10.7347 15.8102 10.8397Z" fill="black"/>
</g>
</svg>
